<svg width="64" height="64" viewBox="0 0 64 64" fill="none" xmlns="http://www.w3.org/2000/svg">
<path d="M61 31.8201C61.039 36.8867 59.7435 41.8742 57.2437 46.2814C56.92 46.8539 56.577 47.4139 56.215 47.9614C56.0359 48.2396 55.8035 48.4796 55.531 48.6674C55.2585 48.8551 54.9515 48.9869 54.6278 49.0551C54.304 49.1233 53.9699 49.1266 53.6448 49.0647C53.3198 49.0028 53.0103 48.877 52.7342 48.6946C52.4581 48.5122 52.221 48.2768 52.0366 48.002C51.8522 47.7273 51.7242 47.4187 51.66 47.0941C51.5958 46.7695 51.5966 46.4354 51.6625 46.1111C51.7283 45.7869 51.8579 45.4789 52.0437 45.2051C54.4296 41.5834 55.7896 37.3829 55.9791 33.0501C56.1686 28.7174 55.1806 24.4142 53.12 20.598C51.0595 16.7818 48.0035 13.5953 44.2767 11.377C40.55 9.15883 36.2919 7.99183 31.955 8.00011C23.6187 8.01636 16.2275 12.3926 11.9312 18.9314C9.36292 22.8324 7.99625 27.4015 8.0007 32.072C8.00514 36.7425 9.3805 41.309 11.9562 45.2051C12.3214 45.7586 12.4517 46.4344 12.3186 47.084C12.1854 47.7336 11.7997 48.3037 11.2462 48.6689C10.6927 49.034 10.0169 49.1644 9.36729 49.0312C8.71771 48.8981 8.14763 48.5123 7.78246 47.9589C4.92646 43.6247 3.286 38.6035 3.03224 33.4192C2.77849 28.2349 3.92074 23.0775 6.33982 18.4852C8.75889 13.8928 12.3661 10.0339 16.7851 7.31101C21.2041 4.58813 26.2728 3.1011 31.4625 3.00511C31.645 3.00136 31.8262 3.00011 32.0075 3.00011C39.6717 2.98432 47.0291 6.01014 52.4647 11.4134C57.9003 16.8167 60.97 24.1559 61 31.8201Z" fill="#494D4B"/>
<path d="M14.5053 36.471L19.0363 59.011C19.3083 60.3641 20.6257 61.2405 21.9788 60.9685C23.3319 60.6965 24.2083 59.3791 23.9363 58.026L19.4053 35.486C19.1333 34.1329 17.8159 33.2565 16.4628 33.5285C15.1097 33.8005 14.2333 35.1179 14.5053 36.471Z" fill="#04D361"/>
<path d="M18.9499 58.5025L17.8012 58.7338C16.0942 59.0774 14.3205 58.756 12.8427 57.8352C11.3649 56.9144 10.2948 55.4637 9.85115 53.78C9.8174 53.65 9.78615 53.52 9.7599 53.3875L8.11365 45.2088C7.75689 43.4334 8.11962 41.589 9.1221 40.0809C10.1246 38.5728 11.6848 37.5245 13.4599 37.1662L14.6087 36.935L16.6237 46.945L18.9499 58.5025Z" fill="#494D4B"/>
<path d="M18.9501 58.5025L17.8013 58.7338C16.0944 59.0775 14.3206 58.756 12.8429 57.8352C11.3651 56.9144 10.2949 55.4638 9.85132 53.78C12.2791 51.677 14.5432 49.3921 16.6238 46.945L18.9501 58.5025Z" fill="#494D4B"/>
<path d="M57.8362 43.34L57.2437 46.2813C56.92 46.8538 56.577 47.4138 56.215 47.9613C56.0359 48.2396 55.8035 48.4795 55.531 48.6673C55.2585 48.855 54.9515 48.9868 54.6278 49.055C54.304 49.1232 53.9699 49.1265 53.6448 49.0646C53.3198 49.0027 53.0103 48.8769 52.7342 48.6945C52.4581 48.5121 52.221 48.2767 52.0366 48.002C51.8522 47.7272 51.7242 47.4186 51.66 47.094C51.5958 46.7694 51.5966 46.4353 51.6625 46.1111C51.7283 45.7868 51.8579 45.4788 52.0437 45.205C53.7383 42.6404 54.9213 39.7724 55.5275 36.7588C56.4683 37.547 57.1793 38.5742 57.5856 39.7324C57.9919 40.8905 58.0785 42.1368 57.8362 43.34Z" fill="#494D4B"/>
<path d="M54.8724 14.1275L51.2862 17.7138C49.0516 14.692 46.1375 12.2383 42.7794 10.5508C39.4212 8.86339 35.7132 7.98959 31.9549 8.00003C23.6187 8.01628 16.2274 12.3925 11.9312 18.9313L8.2937 15.2938C10.9163 11.567 14.3814 8.51174 18.4073 6.37642C22.4331 4.24111 26.9061 3.086 31.4624 3.00503C31.6449 3.00128 31.8262 3.00003 32.0074 3.00003C36.4146 2.99015 40.7657 3.98757 44.7285 5.9161C48.6912 7.84463 52.1609 10.6533 54.8724 14.1275Z" fill="#8257E5"/>
<path d="M44.554 35.4616L40.023 58.0016C39.751 59.3547 40.6274 60.6721 41.9805 60.9441C43.3336 61.2161 44.651 60.3397 44.923 58.9866L49.454 36.4466C49.726 35.0935 48.8496 33.7761 47.4965 33.5041C46.1434 33.2321 44.826 34.1085 44.554 35.4616Z" fill="#04D361"/>
<path d="M55.8862 45.2087L54.2399 53.3875C53.8825 55.1628 52.8346 56.7234 51.3265 57.726C49.8185 58.7286 47.974 59.0911 46.1987 58.7337L45.0499 58.5025L46.2399 52.5937L49.3912 36.935L50.5399 37.1662C52.3148 37.5249 53.8751 38.5728 54.8787 40.08C55.0169 40.2878 55.1433 40.5031 55.2574 40.725C55.9707 42.1046 56.1925 43.6861 55.8862 45.2087Z" fill="#494D4B"/>
<path d="M55.8862 45.2088L54.2399 53.3875C53.8825 55.1628 52.8346 56.7234 51.3265 57.726C49.8185 58.7286 47.974 59.0911 46.1987 58.7338L45.0499 58.5025L46.2399 52.5938C49.6644 48.9738 52.6878 44.9945 55.2574 40.725C55.9707 42.1046 56.1925 43.6862 55.8862 45.2088Z" fill="#494D4B"/>
</svg>
